<svg width="52" height="67" viewBox="0 0 52 67" fill="none" xmlns="http://www.w3.org/2000/svg">
<path fill-rule="evenodd" clip-rule="evenodd" d="M35.7389 10.1827C38.2467 7.48374 39.9428 3.73657 39.4785 0C35.8658 0.129616 31.4873 2.13201 28.8943 4.83073C26.5697 7.21991 24.5346 11.0383 25.0777 14.7016C29.1089 14.9757 33.2272 12.8773 35.7389 10.1827ZM43.4326 35.9876C43.3556 27.6105 50.0295 23.5872 50.3253 23.3927C46.573 17.7041 40.7296 16.9257 38.6484 16.8379C33.6728 16.3128 28.9466 19.8674 26.4204 19.8674C23.9046 19.8674 20.013 16.9069 15.8862 16.9864C10.4611 17.0763 5.46226 20.2523 2.67596 25.286C-2.95974 35.4125 1.23149 50.4132 6.72316 58.627C9.40774 62.6482 12.6041 67.159 16.8015 66.9957C20.8534 66.8326 22.3807 64.2866 27.2692 64.2866C32.1597 64.2866 33.529 66.9957 37.8075 66.9142C42.161 66.8326 44.9163 62.8157 47.578 58.7819C50.6579 54.1185 51.9274 49.6035 52 49.3755C51.9067 49.3211 43.522 46.005 43.4326 35.9876Z" fill="white" fill-opacity="0.6"/>
</svg>
