<svg xmlns="http://www.w3.org/2000/svg" viewBox="0 0 481 270" style="" xmlns:bx="https://boxy-svg.com">
  <defs>
    <bx:export>
      <bx:file format="svg"></bx:file>
    </bx:export>
  </defs>
  <g transform="matrix(2.854024, 0, 0, 2.854024, -494.501068, -527.935547)" style="">
    <path fill-rule="evenodd" clip-rule="evenodd" d="M 183.196 252.882 C 183.196 254.426 181.884 255.679 180.267 255.679 C 178.647 255.679 177.338 254.426 177.338 252.882 C 177.338 251.337 178.647 250.084 180.267 250.084 C 181.884 250.084 183.196 251.337 183.196 252.882 Z M 183.196 232.28 C 183.196 233.825 181.884 235.078 180.267 235.078 C 178.647 235.078 177.338 233.825 177.338 232.28 C 177.338 230.736 178.647 229.483 180.267 229.483 C 181.884 229.483 183.196 230.736 183.196 232.28 Z M 226.342 252.736 C 226.342 254.281 225.03 255.533 223.413 255.533 C 221.796 255.533 220.484 254.281 220.484 252.736 C 220.484 251.192 221.796 249.939 223.413 249.939 C 225.03 249.939 226.342 251.192 226.342 252.736 Z M 226.342 191.078 C 226.342 192.622 225.03 193.875 223.413 193.875 C 221.796 193.875 220.484 192.622 220.484 191.078 C 220.484 189.534 221.796 188.281 223.413 188.281 C 225.03 188.281 226.342 189.534 226.342 191.078 Z M 269.338 273.483 C 269.338 275.028 268.026 276.281 266.408 276.281 C 264.788 276.281 263.479 275.028 263.479 273.483 C 263.479 271.939 264.788 270.686 266.408 270.686 C 268.026 270.686 269.338 271.939 269.338 273.483 Z M 204.77 201.378 C 204.77 202.923 203.458 204.176 201.84 204.176 C 200.22 204.176 198.911 202.923 198.911 201.378 C 198.911 199.834 200.22 198.581 201.84 198.581 C 203.458 198.581 204.77 199.834 204.77 201.378 Z M 247.916 201.378 C 247.916 202.923 246.604 204.176 244.986 204.176 C 243.366 204.176 242.057 202.923 242.057 201.378 C 242.057 199.834 243.366 198.581 244.986 198.581 C 246.604 198.581 247.916 199.834 247.916 201.378 Z" fill="#1946BA" fill-opacity="0.85"></path>
    <path fill-rule="evenodd" clip-rule="evenodd" d="M 209.97 223.109 C 209.97 226.974 206.611 230.109 202.47 230.109 C 198.328 230.109 194.97 226.974 194.97 223.109 C 194.97 219.243 198.328 216.109 202.47 216.109 C 206.611 216.109 209.97 219.243 209.97 223.109 Z" fill="#F21F5B"></path>
    <path fill-rule="evenodd" clip-rule="evenodd" d="M 207.785 242.524 C 207.785 245.191 205.533 247.353 202.754 247.353 C 199.977 247.353 197.725 245.191 197.725 242.524 C 197.725 239.86 199.977 237.696 202.754 237.696 C 205.533 237.696 207.785 239.86 207.785 242.524 Z M 231.957 211.352 C 231.957 215.35 228.578 218.592 224.412 218.592 C 220.243 218.592 216.864 215.35 216.864 211.352 C 216.864 207.352 220.243 204.112 224.412 204.112 C 228.578 204.112 231.957 207.352 231.957 211.352 Z M 253.613 221.743 C 253.613 225.741 250.234 228.983 246.068 228.983 C 241.902 228.983 238.521 225.741 238.521 221.743 C 238.521 217.743 241.902 214.503 246.068 214.503 C 250.234 214.503 253.613 217.743 253.613 221.743 Z M 275.27 232.133 C 275.27 236.134 271.891 239.373 267.725 239.373 C 263.559 239.373 260.18 236.134 260.18 232.133 C 260.18 228.135 263.559 224.893 267.725 224.893 C 271.891 224.893 275.27 228.135 275.27 232.133 Z M 253.613 242.525 C 253.613 246.523 250.234 249.765 246.068 249.765 C 241.902 249.765 238.521 246.523 238.521 242.525 C 238.521 238.524 241.902 235.285 246.068 235.285 C 250.234 235.285 253.613 238.524 253.613 242.525 Z M 296.925 242.525 C 296.925 246.523 293.547 249.765 289.378 249.765 C 285.211 249.765 281.833 246.523 281.833 242.525 C 281.833 238.524 285.211 235.285 289.378 235.285 C 293.547 235.285 296.925 238.524 296.925 242.525 Z M 294.41 263.306 C 294.41 265.973 292.158 268.135 289.378 268.135 C 286.602 268.135 284.347 265.973 284.347 263.306 C 284.347 260.639 286.602 258.48 289.378 258.48 C 292.158 258.48 294.41 260.639 294.41 263.306 Z M 316.069 252.915 C 316.069 255.582 313.816 257.744 311.037 257.744 C 308.26 257.744 306.008 255.582 306.008 252.915 C 306.008 250.251 308.26 248.09 311.037 248.09 C 313.816 248.09 316.069 250.251 316.069 252.915 Z M 318.584 232.133 C 318.584 236.131 315.205 239.373 311.039 239.373 C 306.872 239.373 303.491 236.131 303.491 232.133 C 303.491 228.135 306.872 224.893 311.039 224.893 C 315.205 224.893 318.584 228.135 318.584 232.133 Z M 296.925 221.743 C 296.925 225.741 293.547 228.983 289.378 228.983 C 285.211 228.983 281.833 225.741 281.833 221.743 C 281.833 217.745 285.211 214.502 289.378 214.502 C 293.547 214.502 296.925 217.745 296.925 221.743 Z M 272.755 252.915 C 272.755 255.582 270.503 257.744 267.724 257.744 C 264.947 257.744 262.692 255.582 262.692 252.915 C 262.692 250.248 264.947 248.09 267.724 248.09 C 270.503 248.09 272.755 250.248 272.755 252.915 Z M 318.584 211.352 C 318.584 215.35 315.205 218.592 311.039 218.592 C 306.872 218.592 303.491 215.35 303.491 211.352 C 303.491 207.354 306.872 204.111 311.039 204.111 C 315.205 204.111 318.584 207.354 318.584 211.352 Z M 337.725 200.961 C 337.725 203.628 335.473 205.789 332.693 205.789 C 329.914 205.789 327.664 203.628 327.664 200.961 C 327.664 198.296 329.914 196.135 332.693 196.135 C 335.473 196.135 337.725 198.296 337.725 200.961 Z M 337.725 242.524 C 337.725 245.191 335.473 247.353 332.693 247.353 C 329.917 247.353 327.662 245.191 327.662 242.524 C 327.662 239.857 329.917 237.696 332.693 237.696 C 335.473 237.696 337.725 239.857 337.725 242.524 Z M 272.755 211.352 C 272.755 214.017 270.503 216.178 267.724 216.178 C 264.947 216.178 262.692 214.017 262.692 211.352 C 262.692 208.685 264.947 206.524 267.724 206.524 C 270.503 206.524 272.755 208.685 272.755 211.352 Z M 251.098 263.306 C 251.098 265.973 248.846 268.135 246.067 268.135 C 243.29 268.135 241.038 265.973 241.038 263.306 C 241.038 260.639 243.29 258.48 246.067 258.48 C 248.846 258.48 251.098 260.639 251.098 263.306 Z M 231.957 232.133 C 231.957 236.131 228.578 239.373 224.412 239.373 C 220.246 239.373 216.864 236.131 216.864 232.133 C 216.864 228.135 220.246 224.893 224.412 224.893 C 228.578 224.893 231.957 228.135 231.957 232.133 Z" fill="#1946BA" fill-opacity="0.85"></path>
  </g>
</svg>