<svg width="198" height="86" viewBox="0 0 198 86" fill="none" xmlns="http://www.w3.org/2000/svg">
<path fill-rule="evenodd" clip-rule="evenodd" d="M62.3847 29.4601C62.3847 30.8951 61.2224 32.0566 59.7889 32.0566C58.3555 32.0566 57.1931 30.8951 57.1931 29.4601C57.1931 28.0264 58.3555 26.8637 59.7889 26.8637C61.2224 26.8637 62.3847 28.0264 62.3847 29.4601ZM74.8572 12.6948C74.8572 14.8455 73.1136 16.5894 70.9635 16.5894C68.8133 16.5894 67.0709 14.8455 67.0709 12.6948C67.0709 10.5441 68.8133 8.80015 70.9635 8.80015C73.1136 8.80015 74.8572 10.5441 74.8572 12.6948ZM86.0318 18.2834C86.0318 20.4341 84.2883 22.1781 82.1381 22.1781C79.9879 22.1781 78.2444 20.4341 78.2444 18.2834C78.2444 16.1328 79.9879 14.3888 82.1381 14.3888C84.2883 14.3888 86.0318 16.1328 86.0318 18.2834ZM97.2059 23.8715C97.2059 26.0233 95.4623 27.7661 93.3133 27.7661C91.162 27.7661 89.4196 26.0233 89.4196 23.8715C89.4196 21.7208 91.162 19.978 93.3133 19.978C95.4623 19.978 97.2059 21.7208 97.2059 23.8715ZM86.0318 29.4605C86.0318 31.6111 84.2883 33.3551 82.1381 33.3551C79.9879 33.3551 78.2444 31.6111 78.2444 29.4605C78.2444 27.3098 79.9879 25.5658 82.1381 25.5658C84.2883 25.5658 86.0318 27.3098 86.0318 29.4605ZM108.38 29.4605C108.38 31.6111 106.636 33.3551 104.486 33.3551C102.336 33.3551 100.593 31.6111 100.593 29.4605C100.593 27.3098 102.336 25.5658 104.486 25.5658C106.636 25.5658 108.38 27.3098 108.38 29.4605ZM107.082 40.6372C107.082 42.071 105.92 43.2336 104.486 43.2336C103.053 43.2336 101.891 42.071 101.891 40.6372C101.891 39.2034 103.053 38.0408 104.486 38.0408C105.92 38.0408 107.082 39.2034 107.082 40.6372ZM118.257 35.0488C118.257 36.4825 117.095 37.6452 115.662 37.6452C114.228 37.6452 113.066 36.4825 113.066 35.0488C113.066 33.615 114.228 32.4523 115.662 32.4523C117.095 32.4523 118.257 33.615 118.257 35.0488ZM119.555 23.8718C119.555 26.0225 117.81 27.7653 115.661 27.7653C113.512 27.7653 111.768 26.0225 111.768 23.8718C111.768 21.7212 113.512 19.9783 115.661 19.9783C117.81 19.9783 119.555 21.7212 119.555 23.8718ZM108.38 18.2832C108.38 20.4339 106.636 22.1778 104.486 22.1778C102.336 22.1778 100.593 20.4339 100.593 18.2832C100.593 16.1325 102.336 14.3886 104.486 14.3886C106.636 14.3886 108.38 16.1325 108.38 18.2832ZM95.9087 35.0488C95.9087 36.4825 94.7463 37.6452 93.3129 37.6452C91.8794 37.6452 90.7159 36.4825 90.7159 35.0488C90.7159 33.615 91.8794 32.4523 93.3129 32.4523C94.7463 32.4523 95.9087 33.615 95.9087 35.0488ZM119.555 12.6946C119.555 14.8452 117.812 16.5892 115.661 16.5892C113.512 16.5892 111.768 14.8452 111.768 12.6946C111.768 10.5439 113.512 8.79992 115.661 8.79992C117.812 8.79992 119.555 10.5439 119.555 12.6946ZM129.432 7.10592C129.432 8.5397 128.27 9.70235 126.836 9.70235C125.402 9.70235 124.24 8.5397 124.24 7.10592C124.24 5.67214 125.402 4.50949 126.836 4.50949C128.27 4.50949 129.432 5.67214 129.432 7.10592ZM129.432 29.4605C129.432 30.8943 128.27 32.0569 126.836 32.0569C125.403 32.0569 124.24 30.8943 124.24 29.4605C124.24 28.0267 125.403 26.864 126.836 26.864C128.27 26.864 129.432 28.0267 129.432 29.4605ZM95.9087 12.6948C95.9087 14.1286 94.7463 15.2912 93.3129 15.2912C91.8794 15.2912 90.7159 14.1286 90.7159 12.6948C90.7159 11.261 91.8794 10.0984 93.3129 10.0984C94.7463 10.0984 95.9087 11.261 95.9087 12.6948ZM84.734 40.6374C84.734 42.0712 83.5717 43.2338 82.1382 43.2338C80.7048 43.2338 79.5424 42.0712 79.5424 40.6374C79.5424 39.2036 80.7048 38.041 82.1382 38.041C83.5717 38.041 84.734 39.2036 84.734 40.6374ZM74.8572 23.8715C74.8572 26.0222 73.1136 27.7661 70.9635 27.7661C68.8133 27.7661 67.0709 26.0222 67.0709 23.8715C67.0709 21.7208 68.8133 19.978 70.9635 19.978C73.1136 19.978 74.8572 21.7208 74.8572 23.8715Z" fill="white"/>
<path fill-rule="evenodd" clip-rule="evenodd" d="M50.1319 35.0489C50.1319 35.8876 49.4519 36.5666 48.6146 36.5666C47.7761 36.5666 47.0973 35.8876 47.0973 35.0489C47.0973 34.2114 47.7761 33.5313 48.6146 33.5313C49.4519 33.5313 50.1319 34.2114 50.1319 35.0489ZM50.1319 23.872C50.1319 24.7095 49.4519 25.3896 48.6146 25.3896C47.7761 25.3896 47.0973 24.7095 47.0973 23.872C47.0973 23.0333 47.7761 22.3543 48.6146 22.3543C49.4519 22.3543 50.1319 23.0333 50.1319 23.872ZM72.4806 34.9701C72.4806 35.8088 71.8018 36.4877 70.9633 36.4877C70.126 36.4877 69.446 35.8088 69.446 34.9701C69.446 34.1326 70.126 33.4525 70.9633 33.4525C71.8018 33.4525 72.4806 34.1326 72.4806 34.9701ZM72.4806 1.51765C72.4806 2.35632 71.8018 3.03529 70.9633 3.03529C70.1248 3.03529 69.446 2.35632 69.446 1.51765C69.446 0.678977 70.1248 0 70.9633 0C71.8018 0 72.4806 0.678977 72.4806 1.51765ZM94.7508 46.2263C94.7508 47.0638 94.072 47.7439 93.2335 47.7439C92.3951 47.7439 91.7163 47.0638 91.7163 46.2263C91.7163 45.3888 92.3951 44.7087 93.2335 44.7087C94.072 44.7087 94.7508 45.3888 94.7508 46.2263ZM61.3065 7.10606C61.3065 7.94358 60.6277 8.6237 59.7892 8.6237C58.9508 8.6237 58.2708 7.94358 58.2708 7.10606C58.2708 6.26739 58.9508 5.58841 59.7892 5.58841C60.6277 5.58841 61.3065 6.26739 61.3065 7.10606ZM83.6552 7.10606C83.6552 7.94358 82.9753 8.6237 82.1379 8.6237C81.2995 8.6237 80.6206 7.94358 80.6206 7.10606C80.6206 6.26739 81.2995 5.58841 82.1379 5.58841C82.9753 5.58841 83.6552 6.26739 83.6552 7.10606Z" fill="white"/>
<path fill-rule="evenodd" clip-rule="evenodd" d="M94.7505 46.2266C94.7505 47.0641 94.0717 47.7442 93.2332 47.7442C92.3947 47.7442 91.7159 47.0641 91.7159 46.2266C91.7159 45.389 92.3947 44.7089 93.2332 44.7089C94.0717 44.7089 94.7505 45.389 94.7505 46.2266ZM150.702 18.2836C150.702 19.1211 150.022 19.8012 149.185 19.8012C148.346 19.8012 147.667 19.1211 147.667 18.2836C147.667 17.4461 148.346 16.766 149.185 16.766C150.022 16.766 150.702 17.4461 150.702 18.2836ZM128.353 40.6376C128.353 41.4762 127.674 42.1552 126.836 42.1552C125.998 42.1552 125.318 41.4762 125.318 40.6376C125.318 39.8001 125.998 39.1199 126.836 39.1199C127.674 39.1199 128.353 39.8001 128.353 40.6376ZM141.903 12.6952C141.903 14.8459 140.16 16.5887 138.01 16.5887C135.859 16.5887 134.117 14.8459 134.117 12.6952C134.117 10.5445 135.859 8.8017 138.01 8.8017C140.16 8.8017 141.903 10.5445 141.903 12.6952ZM130.729 18.2838C130.729 20.4345 128.986 22.1773 126.835 22.1773C124.685 22.1773 122.942 20.4345 122.942 18.2838C122.942 16.1332 124.685 14.3892 126.835 14.3892C128.986 14.3892 130.729 16.1332 130.729 18.2838ZM139.527 35.0492C139.527 35.8878 138.848 36.5668 138.01 36.5668C137.171 36.5668 136.492 35.8878 136.492 35.0492C136.492 34.2117 137.171 33.5315 138.01 33.5315C138.848 33.5315 139.527 34.2117 139.527 35.0492ZM140.605 23.8722C140.605 25.306 139.444 26.4687 138.01 26.4687C136.576 26.4687 135.414 25.306 135.414 23.8722C135.414 22.4385 136.576 21.2758 138.01 21.2758C139.444 21.2758 140.605 22.4385 140.605 23.8722ZM106.003 7.10632C106.003 7.94384 105.324 8.62397 104.486 8.62397C103.647 8.62397 102.969 7.94384 102.969 7.10632C102.969 6.26765 103.647 5.58868 104.486 5.58868C105.324 5.58868 106.003 6.26765 106.003 7.10632ZM139.527 1.51826C139.527 2.35578 138.848 3.0359 138.011 3.0359C137.171 3.0359 136.492 2.35578 136.492 1.51826C136.492 0.679588 137.171 0.000610352 138.011 0.000610352C138.848 0.000610352 139.527 0.679588 139.527 1.51826ZM150.702 7.10632C150.702 7.94384 150.022 8.62397 149.185 8.62397C148.346 8.62397 147.667 7.94384 147.667 7.10632C147.667 6.26765 148.346 5.58868 149.185 5.58868C150.022 5.58868 150.702 6.26765 150.702 7.10632ZM10.4872 73.524C10.6894 73.0369 10.7273 72.6382 10.6009 72.3407C10.5033 72.1132 10.3103 71.942 10.0255 71.8317C9.33287 71.5778 8.78155 71.9087 8.414 72.8025L5.82392 79.0845L2.25295 72.6692C2.04161 72.2717 1.78777 72.0029 1.49718 71.8708C1.20199 71.7352 0.875794 71.7559 0.528919 71.9363C0.206165 72.1166 0.0304307 72.3947 0.00401311 72.7623C-0.0212559 73.1196 0.0729285 73.4769 0.283121 73.8227L4.67189 81.4511C4.47778 81.9532 4.26988 82.3323 4.05509 82.577C3.84146 82.8206 3.59451 82.9389 3.29932 82.9389C3.16608 82.9389 3.04204 82.9263 2.92718 82.9022C2.81232 82.878 2.67678 82.8355 2.52402 82.7735C2.36092 82.7091 2.24836 82.6701 2.18863 82.6586C1.52819 82.4426 1.07795 82.6287 0.862011 83.1974C0.619658 83.8419 0.85397 84.3646 1.55921 84.7495C2.02209 85.0069 2.64692 85.1378 3.41303 85.1378C4.26529 85.1378 4.97626 84.8139 5.52529 84.1739C6.06398 83.5455 6.63828 82.523 7.2321 81.1352L10.4872 73.524ZM14.0496 84.9487C14.4229 84.9487 14.7215 84.8327 14.9374 84.6029C15.1534 84.3743 15.2625 84.0767 15.2625 83.716V79.2883H21.126V83.716C21.126 84.0756 21.2317 84.3743 21.4396 84.6018C21.6486 84.8316 21.9519 84.9487 22.3389 84.9487C22.7122 84.9487 23.012 84.8327 23.228 84.6018C23.4427 84.3743 23.5507 84.0756 23.5507 83.716V72.9833C23.5507 72.6237 23.4427 72.3227 23.2291 72.0884C23.012 71.8517 22.7122 71.7322 22.3389 71.7322C21.9519 71.7322 21.6486 71.8529 21.4384 72.0895C21.2306 72.3239 21.126 72.6237 21.126 72.9833V77.1089H15.2625V72.9833C15.2625 72.6237 15.1534 72.3227 14.9386 72.0884C14.7226 71.8517 14.424 71.7322 14.0496 71.7322C13.6625 71.7322 13.3593 71.8529 13.1491 72.0895C12.9412 72.3239 12.8366 72.6249 12.8366 72.9833V83.716C12.8366 84.0756 12.9423 84.3732 13.1502 84.6018C13.3593 84.8316 13.6625 84.9487 14.0496 84.9487ZM28.149 84.9487C28.5383 84.9487 28.9151 84.7155 29.2711 84.2548L35.2817 76.0405V83.716C35.2817 84.063 35.3874 84.3571 35.5941 84.5914C35.8043 84.8281 36.1145 84.9487 36.5142 84.9487C36.9012 84.9487 37.201 84.8316 37.4055 84.6006C37.6053 84.3732 37.7076 84.0756 37.7076 83.716V72.9833C37.7076 72.1527 37.3182 71.7322 36.5521 71.7322C36.111 71.7322 35.7205 71.9597 35.392 72.4078L29.4182 80.6761V72.9833C29.4182 72.6249 29.3136 72.3239 29.1058 72.0895C28.8956 71.8529 28.5923 71.7322 28.2053 71.7322C27.8055 71.7322 27.4989 71.8529 27.2956 72.0907C27.0946 72.325 26.9923 72.6249 26.9923 72.9833V83.716C26.9923 84.1009 27.0957 84.4053 27.2967 84.6213C27.5012 84.8384 27.7883 84.9487 28.149 84.9487ZM47.6655 82.5543C47.2072 82.8599 46.5123 83.015 45.598 83.015C44.7779 83.015 44.0658 82.9794 43.48 82.9093V79.118H45.5796C47.4369 79.118 48.3409 79.7499 48.3409 81.047C48.3409 81.7489 48.1134 82.2556 47.6655 82.5543ZM45.3327 77.2603H43.48V73.7724C44.0543 73.7149 44.6137 73.6851 45.1443 73.6851C46.8753 73.6851 47.716 74.2365 47.716 75.3681C47.716 76.6411 46.9361 77.2603 45.3327 77.2603ZM48.6016 77.8727C49.0645 77.6268 49.4412 77.2695 49.7238 76.81C50.0385 76.2941 50.1993 75.7335 50.1993 75.1418C50.1993 72.8165 48.5683 71.6378 45.3522 71.6378C44.2186 71.6378 43.1883 71.7148 42.2912 71.8664C41.5332 71.9985 41.1484 72.4512 41.1484 73.2106V83.5469C41.1484 84.2936 41.5274 84.7279 42.274 84.8336C43.1688 84.9726 44.2553 85.0439 45.5038 85.0439C49.0335 85.0439 50.823 83.6675 50.823 80.9528C50.823 80.1945 50.607 79.5316 50.1821 78.9836C49.7927 78.4827 49.262 78.1093 48.6016 77.8727ZM62.3526 84.6531C62.564 84.4555 62.6708 84.1913 62.6708 83.8685C62.6708 83.5318 62.564 83.2619 62.3526 83.0631C62.1424 82.8678 61.861 82.769 61.5142 82.769H56.1227V79.25H60.2656C60.6252 79.25 60.9146 79.1478 61.1236 78.9444C61.3338 78.7411 61.4407 78.4745 61.4407 78.1517C61.4407 77.8139 61.3327 77.5463 61.1213 77.3556C60.9123 77.166 60.624 77.0706 60.2656 77.0706H56.1227V73.9124H61.3246C61.6727 73.9124 61.9541 73.8125 62.1631 73.6172C62.3745 73.4196 62.4813 73.1553 62.4813 72.8313C62.4813 72.4947 62.3745 72.2247 62.1631 72.0271C61.9541 71.8318 61.6715 71.7319 61.3246 71.7319H54.9281C54.5411 71.7319 54.2355 71.8525 54.0196 72.088C53.8048 72.3235 53.6957 72.6245 53.6957 72.983V83.6973C53.6957 84.0569 53.8083 84.359 54.0299 84.5934C54.2516 84.8289 54.5606 84.9484 54.9477 84.9484H61.5142C61.861 84.9484 62.1424 84.8496 62.3526 84.6531ZM67.4961 73.8839C68.0222 73.815 68.5494 73.7794 69.0651 73.7794C70.8087 73.7794 71.6575 74.4917 71.6575 75.9553C71.6575 77.5212 70.7662 78.2818 68.933 78.2818C68.3335 78.2818 67.8511 78.2599 67.4961 78.2163V73.8839ZM74.1959 75.8979C74.1959 74.4411 73.7364 73.3532 72.8314 72.6661C71.932 71.9837 70.6835 71.6379 69.1226 71.6379C68.0119 71.6379 67.0264 71.7206 66.1925 71.8849C65.4482 72.032 65.0703 72.503 65.0703 73.2854V83.717C65.0703 84.0755 65.176 84.373 65.3839 84.6017C65.5941 84.8326 65.8961 84.9486 66.2832 84.9486C66.6577 84.9486 66.9563 84.8326 67.1722 84.6028C67.387 84.3742 67.4961 84.0766 67.4961 83.717V80.3233C67.874 80.3784 68.4012 80.406 69.0651 80.406C70.5778 80.406 71.8229 80.0234 72.7659 79.2721C73.7146 78.515 74.1959 77.3799 74.1959 75.8979ZM84.8674 82.1542C83.9623 82.6873 83.071 82.9573 82.2188 82.9573C81.1506 82.9573 80.2558 82.5437 79.5621 81.7257C78.8649 80.9054 78.5111 79.76 78.5111 78.3216C78.5111 76.9327 78.8396 75.8045 79.4886 74.9704C80.5418 73.617 82.2762 73.3517 84.6147 74.2478C85.4015 74.5419 85.9195 74.4201 86.1504 73.9054C86.4203 73.3264 86.2584 72.8289 85.6703 72.428C84.8284 71.8409 83.635 71.5434 82.1246 71.5434C80.2042 71.5434 78.6823 72.166 77.6003 73.3953C76.5195 74.6223 75.9716 76.2859 75.9716 78.34C75.9716 80.4195 76.4873 82.0888 77.5038 83.302C78.5249 84.5209 80.0537 85.1378 82.0488 85.1378C83.6224 85.1378 84.9375 84.7576 85.9563 84.0051C86.2848 83.7558 86.4892 83.4662 86.5628 83.1469C86.6363 82.8217 86.5846 82.5391 86.4088 82.3093C86.0723 81.8245 85.5485 81.7659 84.8674 82.1542ZM98.7599 71.732C98.32 71.732 97.9294 71.9595 97.5998 72.4075L91.6271 80.6759V72.9831C91.6271 72.6247 91.5215 72.3237 91.3147 72.0893C91.1034 71.8526 90.8013 71.732 90.4142 71.732C90.0134 71.732 89.7078 71.8526 89.5034 72.0904C89.3024 72.3248 89.2013 72.6247 89.2013 72.9831V83.7169C89.2013 84.1006 89.3035 84.4051 89.5057 84.6211C89.709 84.8382 89.9961 84.9485 90.3579 84.9485C90.7462 84.9485 91.124 84.7153 91.479 84.2546L97.4907 76.0402V83.7169C97.4907 84.0627 97.5952 84.358 97.8031 84.5912C98.0133 84.8279 98.3223 84.9485 98.722 84.9485C99.1102 84.9485 99.4088 84.8313 99.6133 84.6004C99.8143 84.3729 99.9165 84.0754 99.9165 83.7169V72.9831C99.9165 72.1525 99.5271 71.732 98.7599 71.732ZM113.334 72.8127C113.334 72.4761 113.228 72.2084 113.015 72.0166C112.806 71.8281 112.518 71.7317 112.159 71.7317H103.189C102.843 71.7317 102.561 71.8281 102.35 72.0166C102.139 72.2084 102.032 72.4761 102.032 72.8127C102.032 73.1356 102.139 73.4032 102.349 73.6066C102.559 73.8099 102.841 73.9122 103.189 73.9122H106.461V83.7166C106.461 84.075 106.566 84.3737 106.775 84.6012C106.984 84.8321 107.287 84.9482 107.674 84.9482C108.061 84.9482 108.363 84.8321 108.572 84.6012C108.781 84.3737 108.887 84.0762 108.887 83.7166V73.9122H112.159C112.519 73.9122 112.808 73.8099 113.017 73.6066C113.228 73.4032 113.334 73.1356 113.334 72.8127ZM123.268 82.7685H117.877V79.2507H122.02C122.379 79.2507 122.669 79.1473 122.878 78.9451C123.088 78.7418 123.195 78.4741 123.195 78.1513C123.195 77.8146 123.087 77.5458 122.876 77.3551C122.667 77.1667 122.378 77.0702 122.02 77.0702H117.877V73.912H123.079C123.427 73.912 123.708 73.8132 123.917 73.6167C124.129 73.4202 124.236 73.156 124.236 72.832C124.236 72.4954 124.129 72.2243 123.917 72.0278C123.708 71.8314 123.426 71.7326 123.079 71.7326H116.682C116.295 71.7326 115.99 71.8521 115.774 72.0887C115.559 72.3231 115.45 72.6241 115.45 72.9837V83.698C115.45 84.0576 115.562 84.3586 115.784 84.5929C116.006 84.8284 116.315 84.9491 116.702 84.9491H123.268C123.615 84.9491 123.897 84.8491 124.107 84.6527C124.318 84.4562 124.425 84.192 124.425 83.868C124.425 83.5325 124.318 83.2614 124.107 83.0638C123.897 82.8673 123.615 82.7685 123.268 82.7685ZM136.613 72.8127C136.613 72.4761 136.506 72.2084 136.294 72.0166C136.085 71.8281 135.796 71.7317 135.438 71.7317H126.467C126.122 71.7317 125.839 71.8281 125.629 72.0166C125.418 72.2084 125.311 72.4761 125.311 72.8127C125.311 73.1356 125.418 73.4032 125.628 73.6066C125.838 73.8099 126.119 73.9122 126.467 73.9122H129.74V83.7166C129.74 84.075 129.844 84.3737 130.053 84.6012C130.262 84.8321 130.566 84.9482 130.953 84.9482C131.34 84.9482 131.642 84.8321 131.851 84.6012C132.06 84.3737 132.166 84.0762 132.166 83.7166V73.9122H135.438C135.797 73.9122 136.087 73.8099 136.296 73.6066C136.506 73.4032 136.613 73.1356 136.613 72.8127ZM154.743 83.7166V72.9828C154.743 72.1533 154.354 71.7317 153.588 71.7317C153.146 71.7317 152.757 71.9591 152.426 72.4072L146.454 80.6755V72.9828C146.454 72.6243 146.348 72.3233 146.141 72.0889C145.931 71.8523 145.628 71.7317 145.242 71.7317C144.841 71.7317 144.534 71.8523 144.331 72.0901C144.13 72.3256 144.028 72.6255 144.028 72.9828V83.7166C144.028 84.1003 144.131 84.4047 144.333 84.6207C144.537 84.839 144.823 84.9493 145.184 84.9493C145.574 84.9493 145.951 84.7161 146.307 84.2542L152.317 76.041V83.7166C152.317 84.0635 152.423 84.3576 152.631 84.5909C152.84 84.8287 153.149 84.9493 153.55 84.9493C153.937 84.9493 154.236 84.8321 154.44 84.6012C154.642 84.3726 154.743 84.075 154.743 83.7166ZM166.987 71.732H158.016C157.67 71.732 157.389 71.8274 157.178 72.0169C156.966 72.2088 156.86 72.4753 156.86 72.8131C156.86 73.1359 156.966 73.4024 157.177 73.6069C157.387 73.8091 157.668 73.9125 158.016 73.9125H161.288V83.7169C161.288 84.0754 161.394 84.3729 161.602 84.6015C161.812 84.8325 162.114 84.9485 162.501 84.9485C162.888 84.9485 163.191 84.8325 163.4 84.6015C163.609 84.3729 163.714 84.0754 163.714 83.7169V73.9125H166.987C167.346 73.9125 167.634 73.8091 167.845 73.6069C168.055 73.4024 168.162 73.1359 168.162 72.8131C168.162 72.4753 168.055 72.2088 167.842 72.0169C167.633 71.8274 167.345 71.732 166.987 71.732ZM181.199 71.732C180.732 71.732 180.334 71.9859 180.017 72.4879L176.297 78.4976L172.503 72.5075C172.186 71.9928 171.769 71.732 171.264 71.732C170.929 71.732 170.652 71.8388 170.443 72.0479C170.233 72.2582 170.127 72.5798 170.127 73.0026V83.7169C170.127 84.5338 170.509 84.9485 171.264 84.9485C172.019 84.9485 172.401 84.5338 172.401 83.7169V76.3711L175.059 80.5392C175.351 81.0033 175.729 81.2377 176.185 81.2377C176.628 81.2377 177 80.9964 177.292 80.5208L179.911 76.2838V83.7169C179.911 84.0754 180.02 84.3741 180.236 84.6027C180.452 84.8325 180.75 84.9485 181.125 84.9485C181.511 84.9485 181.814 84.8325 182.023 84.6015C182.231 84.3741 182.336 84.0754 182.336 83.7169V72.9831C182.336 72.612 182.239 72.3087 182.044 72.0813C181.846 71.8492 181.562 71.732 181.199 71.732ZM194.282 81.673C193.638 82.5254 192.7 82.9574 191.495 82.9574C190.303 82.9574 189.372 82.5254 188.727 81.673C188.078 80.8136 187.75 79.6923 187.75 78.3401C187.75 76.9891 188.078 75.8678 188.727 75.0073C189.372 74.156 190.303 73.7229 191.495 73.7229C192.7 73.7229 193.638 74.156 194.282 75.0073C194.931 75.8678 195.259 76.9891 195.259 78.3401C195.259 79.6923 194.931 80.8136 194.282 81.673ZM196.152 73.4632C195.057 72.1891 193.491 71.5435 191.495 71.5435C189.499 71.5435 187.936 72.1891 186.847 73.4632C185.762 74.7327 185.21 76.3744 185.21 78.3401C185.21 80.3196 185.762 81.9636 186.847 83.2274C187.937 84.4957 189.5 85.138 191.495 85.138C193.491 85.138 195.057 84.4957 196.152 83.2274C197.245 81.9636 197.799 80.3196 197.799 78.3401C197.799 76.3744 197.245 74.7327 196.152 73.4632Z" fill="white"/>
</svg>
