<svg width="46" height="50" viewBox="0 0 46 50" fill="none" xmlns="http://www.w3.org/2000/svg">
<path fill-rule="evenodd" clip-rule="evenodd" d="M0.202022 2.36186C0.202022 2.36186 24.1739 25.0263 24.1739 25.0266L0.197339 47.628C0.0820222 47.2131 0 46.7656 0 46.2566V3.75047C0 3.2337 0.0820222 2.78131 0.202022 2.36186ZM33.5307 16.205L26.4709 22.8634L2.39321 0.100044C3.32147 -0.135473 4.42018 0.0356866 5.53624 0.711007L33.5307 16.205ZM43.8521 21.9178C46.0463 23.1447 47.3408 26.3836 43.7921 28.3956L36.5222 32.3681L28.7269 24.995L36.3803 17.782L43.8521 21.9178ZM2.32212 49.8803C2.32212 49.8803 26.4268 27.1578 26.4268 27.1577L33.6144 33.9528L5.53469 49.2928C4.39019 49.9856 3.26459 50.1425 2.32212 49.8803Z" fill="white" fill-opacity="0.6"/>
</svg>
