<svg width="19" height="19" viewBox="0 0 19 19" fill="none" xmlns="http://www.w3.org/2000/svg">
<path fill-rule="evenodd" clip-rule="evenodd" d="M13.5814 11.949H12.7188L12.419 11.6514C13.4782 10.4163 14.1224 8.81511 14.1224 7.06076C14.1224 3.16105 10.9611 0 7.06115 0C3.16123 0 0 3.16105 0 7.06076C0 10.9605 3.16123 14.1216 7.06115 14.1216C8.81561 14.1216 10.4158 13.4785 11.6509 12.4204L11.9508 12.7181V13.5784L17.3803 19L19 17.3804L13.5814 11.949ZM7.06127 11.949C4.36064 11.949 2.17276 9.76125 2.17276 7.06076C2.17276 4.36138 4.36064 2.17254 7.06127 2.17254C9.76079 2.17254 11.9498 4.36138 11.9498 7.06076C11.9498 9.76125 9.76079 11.949 7.06127 11.949Z" fill="#3949E7"/>
</svg>
