<svg xmlns="http://www.w3.org/2000/svg" viewBox="0 0 500 500"> <g transform="matrix(7.442194, 0, 0, 7.442194, -1814.367798, -788.729309)" style=""> <ellipse cx="285.74" cy="130.26" rx="24.5" ry="24" fill="#FFF0B8"></ellipse> <path d="M 267.591 123.628 C 260.528 123.628 254.781 129.443 254.781 136.59 C 254.781 143.738 260.528 149.553 267.591 149.553 C 274.654 149.553 280.4 143.738 280.4 136.59 C 280.4 129.443 274.654 123.628 267.591 123.628 Z M 267.591 144.368 C 263.353 144.368 259.905 140.879 259.905 136.59 C 259.905 132.302 263.353 128.813 267.591 128.813 C 271.828 128.813 275.276 132.302 275.276 136.59 C 275.276 140.879 271.828 144.368 267.591 144.368 Z M 290.648 172.886 L 290.648 170.293 C 290.648 160.289 282.601 152.146 272.714 152.146 L 262.467 152.146 C 252.578 152.146 244.534 160.289 244.534 170.293 L 244.534 172.886 L 249.658 172.886 L 249.658 170.293 C 249.658 163.146 255.404 157.331 262.467 157.331 L 272.714 157.331 C 279.778 157.331 285.524 163.146 285.524 170.293 L 285.524 172.886 L 290.648 172.886 Z" fill="#FFD22F"></path> </g> </svg>