<svg xmlns="http://www.w3.org/2000/svg" viewBox="0 0 500 500"> <g transform="matrix(7.463577, 0, 0, 7.463577, -1712.013794, -1096.865845)" style=""> <ellipse cx="268.682" cy="171.126" rx="24.5" ry="24" fill="#9EF8B9"></ellipse> <path d="M 271.422 181.157 C 271.395 181.079 271.373 181.003 271.341 180.927 C 271.222 180.667 271.073 180.42 270.864 180.209 L 256.239 165.509 C 256.029 165.298 255.783 165.149 255.525 165.029 C 255.451 164.995 255.373 164.975 255.295 164.948 C 255.091 164.879 254.881 164.835 254.664 164.823 C 254.61 164.818 254.564 164.791 254.513 164.791 L 237.45 164.791 C 234.762 164.791 232.575 166.989 232.575 169.691 L 232.575 208.891 C 232.575 211.594 234.762 213.791 237.45 213.791 L 266.7 213.791 C 269.389 213.791 271.575 211.594 271.575 208.891 L 271.575 181.941 C 271.575 181.89 271.549 181.843 271.544 181.789 C 271.532 181.574 271.49 181.363 271.422 181.157 Z M 263.254 179.491 L 256.95 179.491 L 256.95 173.155 L 263.254 179.491 Z M 237.45 208.891 L 237.45 169.691 L 252.075 169.691 L 252.075 181.941 C 252.075 183.296 253.165 184.391 254.513 184.391 L 266.7 184.391 L 266.705 208.891 L 237.45 208.891 Z" fill="#38C463"></path> </g> </svg>